<svg width="177" height="77" viewBox="0 0 177 77" fill="none" xmlns="http://www.w3.org/2000/svg">
<path d="M175.459 15.1493C176.515 19.0889 175.215 23.5367 171.796 28.253C168.381 32.965 162.896 37.8768 155.738 42.6955C141.425 52.3301 120.517 61.5286 96.4075 67.9888C72.2977 74.449 49.5918 76.9367 32.3794 75.7493C23.7706 75.1554 16.5648 73.644 11.2509 71.271C5.93218 68.8959 2.58238 65.694 1.52677 61.7544C0.471169 57.8149 1.77123 53.367 5.18983 48.6508C8.60534 43.9388 14.09 39.027 21.2485 34.2083C35.5611 24.5737 56.4689 15.3751 80.5787 8.91494C104.689 2.45474 127.394 -0.032947 144.607 1.15451C153.216 1.74842 160.421 3.25982 165.735 5.63276C171.054 8.00784 174.404 11.2098 175.459 15.1493Z" stroke="url(#paint0_linear_9_45)"/>
<defs>
<linearGradient id="paint0_linear_9_45" x1="80.4493" y1="8.43197" x2="96.5369" y2="68.4718" gradientUnits="userSpaceOnUse">
<stop stop-color="#00CEB8"/>
<stop offset="1" stop-color="#00BEF7"/>
</linearGradient>
</defs>
</svg>
