<svg width="63" height="15" viewBox="0 0 63 15" fill="none" xmlns="http://www.w3.org/2000/svg">
<path d="M49.5769 2.67101C50.0394 3.4308 50.3301 4.28458 50.4979 5.15403C50.7435 6.4112 50.7148 7.69971 50.723 8.97255C50.7271 9.41119 50.768 14.6122 50.7353 14.6122H49.5564V11.7454C48.4472 13.6566 46.8427 14.6122 44.7428 14.6122C43.0687 14.6122 41.6443 13.9425 40.4736 12.5992C39.303 11.2558 38.7177 9.48169 38.7177 7.27282C38.7177 5.11095 39.2743 3.3603 40.3836 2.01696C41.4928 0.673627 42.9459 0.00391727 44.7428 0.00391727C46.4333 0.00391727 48.0829 0.767621 49.1267 2.04046C49.2904 2.23628 49.4418 2.44777 49.5769 2.67101ZM44.8042 1.29634C43.4903 1.29634 42.3606 1.82506 41.4151 2.8825C40.4654 3.93993 39.9906 5.36943 39.9906 7.16708C39.9906 8.82764 40.4245 10.2689 41.2923 11.4869C42.16 12.7049 43.3389 13.312 44.8329 13.312C46.3064 13.312 47.473 12.7127 48.3285 11.5182C49.1881 10.3237 49.6137 8.87464 49.6137 7.16708C49.6137 5.27935 49.1185 3.82636 48.132 2.81592C47.1456 1.80156 46.0322 1.29634 44.8042 1.29634ZM55.1273 0H56.3389V14.6122H55.1273V0ZM60.7718 14.3028C60.559 14.0992 60.4525 13.8446 60.4525 13.5352C60.4525 13.2258 60.559 12.9712 60.7718 12.7676C60.9847 12.5639 61.2507 12.4621 61.5741 12.4621C61.8974 12.4621 62.1635 12.5639 62.3764 12.7676C62.5892 12.9712 62.6956 13.2258 62.6956 13.5352C62.6956 13.8446 62.5892 14.0992 62.3764 14.3028C62.1635 14.5065 61.8974 14.6083 61.5741 14.6083C61.2507 14.6083 60.9847 14.5065 60.7718 14.3028Z" fill="url(#paint0_linear_3_7)"/>
<path d="M0.00409096 0.0822754H1.49402V8.61227C1.49402 10.2533 1.81738 11.4321 2.46002 12.1488C3.15586 12.9125 4.1587 13.2924 5.47262 13.2924C6.78654 13.2924 7.79347 12.9125 8.48522 12.1488C9.13195 11.4321 9.45122 10.2533 9.45122 8.61227V0.0822754H10.9412V8.99216C10.9412 10.6566 10.5564 11.9491 9.78687 12.8734C8.81677 14.0287 7.38006 14.6083 5.46853 14.6083C3.557 14.6083 2.12028 14.0287 1.15429 12.8734C0.384762 11.9491 0 10.6527 0 8.99216V0.0822754H0.00409096Z" fill="black"/>
<path d="M16.3032 14.6083V0.0626526H17.7931V2.60833C18.8083 0.912518 20.3596 0.0626526 22.443 0.0626526C24.3259 0.0626526 25.7299 0.724527 26.6467 2.0522C27.142 2.79632 27.3917 3.99475 27.3917 5.64357V14.6083H25.9018V5.64748C25.9018 4.32373 25.7012 3.36812 25.3083 2.78849C24.7147 1.86029 23.7201 1.39424 22.3325 1.39424C20.6461 1.39424 19.4059 2.05611 18.6118 3.38379C18.0674 4.28848 17.7931 5.56915 17.7931 7.21797V14.6122H16.3032V14.6083Z" fill="black"/>
<path d="M34.2397 0.0822754H32.7498V14.6083H34.2397V0.0822754Z" fill="black"/>
<defs>
<linearGradient id="paint0_linear_3_7" x1="38.7174" y1="7.30368" x2="62.6953" y2="7.30368" gradientUnits="userSpaceOnUse">
<stop offset="0.0044703" stop-color="#00B4D3"/>
<stop offset="0.2867" stop-color="#00B8A6"/>
<stop offset="0.2988" stop-color="#00B8A4"/>
<stop offset="0.3462" stop-color="#2FB594"/>
<stop offset="0.4913" stop-color="#BCAD64"/>
<stop offset="0.5547" stop-color="#F4AA51"/>
<stop offset="0.7533" stop-color="#E27F90"/>
<stop offset="0.8295" stop-color="#DB6DAA"/>
<stop offset="1" stop-color="#B466A8"/>
</linearGradient>
</defs>
</svg>
